<?xml version="1.0" standalone="no"?>
<!DOCTYPE svg PUBLIC "-//W3C//DTD SVG 20010904//EN"
 "http://www.w3.org/TR/2001/REC-SVG-20010904/DTD/svg10.dtd">
<svg version="1.0" xmlns="http://www.w3.org/2000/svg"
 width="1280.000000pt" height="1226.000000pt" viewBox="0 0 1280.000000 1226.000000"
 preserveAspectRatio="xMidYMid meet">
<metadata>
Created by potrace 1.15, written by Peter Selinger 2001-2017
</metadata>
<g transform="translate(0.000000,1226.000000) scale(0.100000,-0.100000)"
fill="#000000" stroke="none">
<path d="M7059 12215 c-173 -77 -312 -116 -492 -140 -141 -18 -228 -19 -403
-4 -217 19 -314 -9 -473 -138 -46 -37 -114 -92 -150 -121 -99 -79 -195 -124
-280 -130 -59 -4 -82 0 -150 24 -64 23 -85 26 -108 18 -26 -9 -28 -14 -31 -72
-4 -76 -18 -87 -101 -79 -98 10 -138 -25 -196 -173 -48 -123 -89 -156 -280
-231 -191 -74 -269 -129 -500 -349 -213 -203 -318 -280 -507 -370 -237 -113
-470 -174 -978 -259 -440 -74 -573 -101 -750 -153 -580 -169 -1046 -488 -1314
-900 -122 -188 -231 -455 -275 -678 -39 -197 -46 -280 -45 -530 0 -372 24
-548 179 -1329 149 -754 185 -996 207 -1373 9 -163 9 -256 -1 -407 -23 -392
-62 -591 -242 -1266 -73 -274 -129 -533 -150 -700 -20 -151 -17 -468 5 -590
49 -270 138 -470 297 -668 36 -46 133 -152 215 -237 82 -85 235 -249 340 -365
194 -213 280 -296 434 -420 281 -227 647 -407 972 -479 203 -44 280 -50 603
-46 670 10 994 5 1315 -20 388 -30 808 -33 1005 -6 271 36 477 93 671 185 140
67 244 138 429 293 288 241 420 330 660 448 323 159 645 239 1040 260 315 16
587 -8 1010 -90 315 -61 303 -59 430 -70 201 -18 389 15 539 93 65 33 108 68
227 183 121 117 161 149 224 180 70 35 83 38 183 41 161 6 183 20 222 139 45
134 96 162 310 175 150 8 245 31 343 80 212 108 399 327 510 599 73 177 104
288 197 713 66 301 125 521 245 912 240 785 316 1123 345 1545 29 412 -43 821
-201 1146 -87 179 -176 301 -349 478 -96 99 -164 178 -178 206 -11 25 -28 86
-36 136 -17 109 -33 148 -77 199 -48 55 -121 98 -258 154 -150 61 -201 90
-274 159 -71 68 -132 163 -231 359 -95 188 -136 245 -262 358 -229 208 -254
246 -285 431 -31 185 -59 229 -165 264 -110 37 -134 83 -116 227 19 145 -3
202 -140 374 -50 63 -105 143 -121 178 l-30 64 -2 211 c-2 198 -3 217 -29 300
-138 457 -552 832 -1143 1036 -361 125 -888 214 -1473 250 -96 5 -196 12 -221
13 -37 3 -65 -5 -140 -38z"/>
</g>
</svg>
